<svg xmlns="http://www.w3.org/2000/svg" width="25" height="24" viewBox="0 0 25 24" fill="none">
  <path d="M4.3335 18H20.3335C20.8835 18 21.3335 17.55 21.3335 17C21.3335 16.45 20.8835 16 20.3335 16H4.3335C3.7835 16 3.3335 16.45 3.3335 17C3.3335 17.55 3.7835 18 4.3335 18ZM4.3335 13H20.3335C20.8835 13 21.3335 12.55 21.3335 12C21.3335 11.45 20.8835 11 20.3335 11H4.3335C3.7835 11 3.3335 11.45 3.3335 12C3.3335 12.55 3.7835 13 4.3335 13ZM3.3335 7C3.3335 7.55 3.7835 8 4.3335 8H20.3335C20.8835 8 21.3335 7.55 21.3335 7C21.3335 6.45 20.8835 6 20.3335 6H4.3335C3.7835 6 3.3335 6.45 3.3335 7Z" fill="white"/>
</svg>