<svg width="25" height="24" viewBox="0 0 25 24" fill="none" xmlns="http://www.w3.org/2000/svg">
<path fill-rule="evenodd" clip-rule="evenodd" d="M7.3335 2C4.57207 2 2.3335 4.23858 2.3335 7V17C2.3335 19.7614 4.57207 22 7.3335 22H17.3335C20.0949 22 22.3335 19.7614 22.3335 17V7C22.3335 4.23858 20.0949 2 17.3335 2H7.3335ZM18.3335 7C18.8858 7 19.3335 6.55228 19.3335 6C19.3335 5.44772 18.8858 5 18.3335 5C17.7812 5 17.3335 5.44772 17.3335 6C17.3335 6.55228 17.7812 7 18.3335 7ZM17.3335 12C17.3335 14.7614 15.0949 17 12.3335 17C9.57207 17 7.3335 14.7614 7.3335 12C7.3335 9.23858 9.57207 7 12.3335 7C15.0949 7 17.3335 9.23858 17.3335 12ZM12.3335 15C13.9904 15 15.3335 13.6569 15.3335 12C15.3335 10.3431 13.9904 9 12.3335 9C10.6766 9 9.3335 10.3431 9.3335 12C9.3335 13.6569 10.6766 15 12.3335 15Z" fill="#B6B3EB"/>
</svg>
