<svg width="73" height="46" viewBox="0 0 73 46" fill="none" xmlns="http://www.w3.org/2000/svg">
<path d="M-2.6665 8.37413V24.0789H19.2085C19.2035 27.5486 17.5557 30.875 14.6266 33.3284C11.6974 35.7819 7.72598 37.162 3.5835 37.1662V45.0186C10.2116 45.0123 16.5661 42.8042 21.2529 38.8786C25.9397 34.953 28.5761 29.6305 28.5835 24.0789V-2.0957H9.8335C6.51829 -2.0957 3.33887 -0.992634 0.994662 0.970841C-1.34954 2.93432 -2.6665 5.59736 -2.6665 8.37413Z" fill="#5D55FF" fill-opacity="0.1"/>
<path d="M53.5832 -2.0957C50.268 -2.0957 47.0886 -0.992634 44.7444 0.970841C42.4002 2.93432 41.0832 5.59736 41.0832 8.37413V24.0789H62.9582C62.9532 27.5486 61.3054 30.875 58.3763 33.3284C55.4471 35.7819 51.4757 37.162 47.3332 37.1662V45.0186C53.9613 45.0123 60.3158 42.8042 65.0026 38.8786C69.6894 34.953 72.3257 29.6305 72.3332 24.0789V-2.0957H53.5832Z" fill="#5D55FF" fill-opacity="0.1"/>
</svg>
