<svg width="117" height="20" viewBox="0 0 117 20" fill="none" xmlns="http://www.w3.org/2000/svg">
<path fill-rule="evenodd" clip-rule="evenodd" d="M11.2537 3.48092L12.7766 6.52321C12.9258 6.82188 13.2139 7.02898 13.548 7.0769L16.9546 7.56726C17.7963 7.68878 18.1312 8.70887 17.5221 9.29337L15.0586 11.6604C14.8166 11.8932 14.7064 12.2278 14.7636 12.5564L15.345 15.8983C15.4882 16.7249 14.6083 17.3557 13.856 16.9646L10.8112 15.3857C10.5127 15.2308 10.1552 15.2308 9.85582 15.3857L6.811 16.9646C6.05869 17.3557 5.17882 16.7249 5.32287 15.8983L5.90337 12.5564C5.96064 12.2278 5.85044 11.8932 5.60834 11.6604L3.1449 9.29337C2.53576 8.70887 2.8707 7.68878 3.71238 7.56726L7.11904 7.0769C7.45311 7.02898 7.74206 6.82188 7.89131 6.52321L9.41328 3.48092C9.78987 2.72869 10.8771 2.72869 11.2537 3.48092Z" fill="#FFB800"/>
<path fill-rule="evenodd" clip-rule="evenodd" d="M35.2537 3.48092L36.7766 6.52321C36.9258 6.82188 37.2139 7.02898 37.548 7.0769L40.9546 7.56726C41.7963 7.68878 42.1312 8.70887 41.5221 9.29337L39.0586 11.6604C38.8166 11.8932 38.7064 12.2278 38.7636 12.5564L39.345 15.8983C39.4882 16.7249 38.6083 17.3557 37.856 16.9646L34.8112 15.3857C34.5127 15.2308 34.1552 15.2308 33.8558 15.3857L30.811 16.9646C30.0587 17.3557 29.1788 16.7249 29.3229 15.8983L29.9034 12.5564C29.9606 12.2278 29.8504 11.8932 29.6083 11.6604L27.1449 9.29337C26.5358 8.70887 26.8707 7.68878 27.7124 7.56726L31.119 7.0769C31.4531 7.02898 31.7421 6.82188 31.8913 6.52321L33.4133 3.48092C33.7899 2.72869 34.8771 2.72869 35.2537 3.48092Z" fill="#FFB800"/>
<path fill-rule="evenodd" clip-rule="evenodd" d="M59.2537 3.48092L60.7766 6.52321C60.9258 6.82188 61.2139 7.02898 61.548 7.0769L64.9546 7.56726C65.7963 7.68878 66.1312 8.70887 65.5221 9.29337L63.0586 11.6604C62.8166 11.8932 62.7064 12.2278 62.7636 12.5564L63.345 15.8983C63.4882 16.7249 62.6083 17.3557 61.856 16.9646L58.8112 15.3857C58.5127 15.2308 58.1552 15.2308 57.8558 15.3857L54.811 16.9646C54.0587 17.3557 53.1788 16.7249 53.3229 15.8983L53.9034 12.5564C53.9606 12.2278 53.8504 11.8932 53.6083 11.6604L51.1449 9.29337C50.5358 8.70887 50.8707 7.68878 51.7124 7.56726L55.119 7.0769C55.4531 7.02898 55.7421 6.82188 55.8913 6.52321L57.4133 3.48092C57.7899 2.72869 58.8771 2.72869 59.2537 3.48092Z" fill="#FFB800"/>
<path fill-rule="evenodd" clip-rule="evenodd" d="M83.2537 3.48092L84.7766 6.52321C84.9258 6.82188 85.2139 7.02898 85.548 7.0769L88.9546 7.56726C89.7963 7.68878 90.1312 8.70887 89.5221 9.29337L87.0586 11.6604C86.8166 11.8932 86.7064 12.2278 86.7636 12.5564L87.345 15.8983C87.4882 16.7249 86.6083 17.3557 85.856 16.9646L82.8112 15.3857C82.5127 15.2308 82.1552 15.2308 81.8558 15.3857L78.811 16.9646C78.0587 17.3557 77.1788 16.7249 77.3229 15.8983L77.9034 12.5564C77.9606 12.2278 77.8504 11.8932 77.6083 11.6604L75.1449 9.29337C74.5358 8.70887 74.8707 7.68878 75.7124 7.56726L79.119 7.0769C79.4531 7.02898 79.7421 6.82188 79.8913 6.52321L81.4133 3.48092C81.7899 2.72869 82.8771 2.72869 83.2537 3.48092Z" fill="#FFB800"/>
<path fill-rule="evenodd" clip-rule="evenodd" d="M107.254 3.48092L108.777 6.52321C108.926 6.82188 109.214 7.02898 109.548 7.0769L112.955 7.56726C113.796 7.68878 114.131 8.70887 113.522 9.29337L111.059 11.6604C110.817 11.8932 110.706 12.2278 110.764 12.5564L111.345 15.8983C111.488 16.7249 110.608 17.3557 109.856 16.9646L106.811 15.3857C106.513 15.2308 106.155 15.2308 105.856 15.3857L102.811 16.9646C102.059 17.3557 101.179 16.7249 101.323 15.8983L101.903 12.5564C101.961 12.2278 101.85 11.8932 101.608 11.6604L99.1449 9.29337C98.5358 8.70887 98.8707 7.68878 99.7124 7.56726L103.119 7.0769C103.453 7.02898 103.742 6.82188 103.891 6.52321L105.413 3.48092C105.79 2.72869 106.877 2.72869 107.254 3.48092Z" fill="#FFB800"/>
</svg>
