<svg width="25" height="24" viewBox="0 0 25 24" fill="none" xmlns="http://www.w3.org/2000/svg">
<path d="M15.6196 4C13.5157 4 11.8102 5.79086 11.8102 8C11.8102 8.33382 11.8491 8.65809 11.9225 8.96808C9.8996 8.96808 6.85264 8.55908 4.30793 6.00961C3.96955 5.67059 3.34558 5.89726 3.36905 6.37567C3.74618 14.0627 7.03826 16.3049 8.7336 16.4444C7.63885 17.5257 6.0486 18.3791 4.44838 18.7622C4.02606 18.8633 3.92173 19.3256 4.3347 19.4599C5.47972 19.8323 7.11866 19.9758 8.00085 20C14.2417 20 19.3141 14.7471 19.427 8.22229C20.2464 7.68945 20.7712 6.5325 21.0661 5.71291C21.1379 5.5133 20.8108 5.28073 20.615 5.36226C20.0029 5.61708 19.2258 5.67749 18.5639 5.46181C17.8653 4.56927 16.8057 4 15.6196 4Z" fill="#B6B3EB"/>
</svg>
